<svg width="44" height="43" viewBox="0 0 44 43" fill="none" xmlns="http://www.w3.org/2000/svg">
<path d="M35.208 7.75H17.8448L14.7971 2.67063C14.6972 2.50422 14.5558 2.36653 14.3869 2.27091C14.2179 2.1753 14.0271 2.12504 13.833 2.125H1.45801C1.15964 2.125 0.873491 2.24353 0.662513 2.4545C0.451534 2.66548 0.333008 2.95163 0.333008 3.25L0.333008 30.25C0.333008 31.4435 0.807114 32.5881 1.65103 33.432C2.49494 34.2759 3.63953 34.75 4.83301 34.75H31.833C33.0265 34.75 34.1711 34.2759 35.015 33.432C35.8589 32.5881 36.333 31.4435 36.333 30.25V8.875C36.333 8.57663 36.2145 8.29048 36.0035 8.0795C35.7925 7.86853 35.5064 7.75 35.208 7.75Z" fill="#38598A"/>
<circle cx="32.6455" cy="31.2188" r="11" fill="white"/>
<path d="M38.0955 31.9062H40.458V29.6562H38.0955C37.9504 28.9515 37.6704 28.2814 37.2709 27.683L38.946 26.0079L37.3553 24.4171L35.6801 26.0922C35.0819 25.6933 34.4123 25.4136 33.708 25.2688V22.9062H31.458V25.2688C30.7533 25.4139 30.0832 25.6939 29.4848 26.0934L27.8096 24.4183L26.2189 26.009L27.894 27.6841C27.495 28.2823 27.2154 28.952 27.0705 29.6562H24.708V31.9062H27.0705C27.2156 32.611 27.4956 33.2811 27.8951 33.8795L26.22 35.5546L27.8108 37.1454L29.4859 35.4702C30.0841 35.8692 30.7537 36.1488 31.458 36.2937V38.6562H33.708V36.2937C34.4128 36.1486 35.0828 35.8686 35.6813 35.4691L37.3564 37.1443L38.9471 35.5535L37.272 33.8784C37.671 33.2802 37.9506 32.6105 38.0955 31.9062Z" fill="#38598A"/>
<path d="M32.583 33.0312C33.8256 33.0312 34.833 32.0239 34.833 30.7812C34.833 29.5386 33.8256 28.5312 32.583 28.5312C31.3404 28.5312 30.333 29.5386 30.333 30.7812C30.333 32.0239 31.3404 33.0312 32.583 33.0312Z" fill="white"/>
</svg>
