<svg width="35" height="35" viewBox="0 0 35 35" fill="none" xmlns="http://www.w3.org/2000/svg">
<path d="M17.5003 10.2083V4.375H2.91699V30.625H19.4691C19.1288 29.6904 18.956 28.703 18.9587 27.7083H17.5003V24.7917H19.4691C19.6897 24.1118 20.0091 23.4682 20.417 22.8812V21.875H17.5003V18.9583H20.417V16.0417H17.5003V13.125H29.167V19.0896C30.1975 19.2495 31.1877 19.6059 32.0837 20.1396V10.2083M8.75033 27.7083H5.83366V24.7917H8.75033M8.75033 21.875H5.83366V18.9583H8.75033M8.75033 16.0417H5.83366V13.125H8.75033M8.75033 10.2083H5.83366V7.29167H8.75033M14.5837 27.7083H11.667V24.7917H14.5837M14.5837 21.875H11.667V18.9583H14.5837M14.5837 16.0417H11.667V13.125H14.5837M14.5837 10.2083H11.667V7.29167H14.5837M23.3337 18.9583H26.2503V16.0417H23.3337M23.3337 16.0417V18.9583H26.2503V16.0417M23.3337 16.0417V18.9583H26.2503V16.0417M32.8712 24.6167L29.7649 27.7083L32.8712 30.8L30.8003 32.8708L27.7087 29.7646L24.617 32.8708L22.5462 30.8L25.6524 27.7083L22.5462 24.6167L24.617 22.5458L27.7087 25.6521L30.8003 22.5458L32.8712 24.6167Z" fill="#38598A"/>
</svg>
